<svg width="24" height="24" viewBox="0 0 24 24" fill="none" xmlns="http://www.w3.org/2000/svg">
    <g id="icon-kefu">
        <g id="Group 1261153846">
            <path id="Vector"
                d="M14.8571 14.3811C14.8571 14.1285 14.9575 13.8863 15.1361 13.7077C15.3147 13.5291 15.5569 13.4287 15.8095 13.4287C16.0621 13.4287 15.9044 13.5291 16.083 13.7077C16.2616 13.8863 16.3619 14.1285 16.3619 14.3811V18.1916C16.3619 20.2939 15.1538 21.7001 13.0524 21.7001C12.7998 21.7001 12.4576 21.6998 12.2789 21.5212C12.1003 21.3426 12 21.2527 12 21.0001C12 20.7476 12.0214 20.5787 12.2 20.4001C12.3786 20.2215 12.6998 20.1954 12.9524 20.1954C14.0024 20.1954 14.8571 19.2416 14.8571 18.1916V14.3811Z"
                fill="#01B14E" />
            <path id="Vector_2"
                d="M4.93335 10.5714C4.93335 6.88952 8.31811 3.50476 12 3.50476C15.6819 3.50476 19.0667 6.88952 19.0667 10.5714H20.5714C20.5714 5.83762 16.7338 2 12 2C7.26621 2 3.42859 5.83762 3.42859 10.5714H4.93335ZM4.93335 10.5714C4.93335 6.88952 8.31811 3.50476 12 3.50476C15.6819 3.50476 19.0667 6.88952 19.0667 10.5714H20.5714C20.5714 5.83762 16.7338 2 12 2C7.26621 2 3.42859 5.83762 3.42859 10.5714H4.93335Z"
                fill="#01B14E" />
            <path id="Vector_3"
                d="M16.3619 10.1756V14.7765C16.3619 14.7794 16.3633 14.7808 16.361 14.7808H19.0676C19.0676 14.7808 19.0667 14.7817 19.0667 14.7765V10.176C19.0667 10.1732 19.0653 10.1717 19.0676 10.1717H16.361C16.361 10.1717 16.3619 10.1703 16.3619 10.1756ZM14.8572 10.5756C14.8565 10.3251 14.9052 10.077 15.0006 9.84539C15.0959 9.6138 15.2361 9.40331 15.4129 9.22597C15.5898 9.04863 15.7999 8.90792 16.0312 8.81192C16.2625 8.71592 16.5105 8.6665 16.761 8.6665H18.6676C19.72 8.6665 20.5714 9.52365 20.5714 10.5756V14.3765C20.5721 14.627 20.5234 14.8751 20.428 15.1067C20.3327 15.3383 20.1925 15.5487 20.0157 15.7261C19.8388 15.9034 19.6287 16.0441 19.3974 16.1401C19.1661 16.2361 18.9181 16.2856 18.6676 16.2856H16.761C15.7086 16.2856 14.8572 15.4284 14.8572 14.3765V10.5756ZM4.93336 10.1756V14.7765C4.93336 14.7794 4.93478 14.7808 4.9324 14.7808H7.63907C7.63907 14.7808 7.63812 14.7817 7.63812 14.7765V10.176C7.63812 10.1732 7.63669 10.1717 7.63907 10.1717H4.9324C4.9324 10.1717 4.93336 10.1703 4.93336 10.1756ZM3.4286 10.5756C3.42791 10.3251 3.47664 10.077 3.57201 9.84539C3.66738 9.6138 3.8075 9.40331 3.98435 9.22597C4.16121 9.04863 4.37131 8.90792 4.60264 8.81192C4.83396 8.71592 5.08195 8.6665 5.3324 8.6665H7.23907C8.29145 8.6665 9.14288 9.52365 9.14288 10.5756V14.3765C9.14357 14.627 9.09483 14.8751 8.99946 15.1067C8.9041 15.3383 8.76397 15.5487 8.58712 15.7261C8.41027 15.9034 8.20016 16.0441 7.96884 16.1401C7.73751 16.2361 7.48952 16.2856 7.23907 16.2856H5.3324C4.28002 16.2856 3.4286 15.4284 3.4286 14.3765V10.5756Z"
                fill="#01B14E" />
        </g>
    </g>
</svg>