<svg width="16" height="16" viewBox="0 0 16 16" fill="none" xmlns="http://www.w3.org/2000/svg">
    <path
        d="M5.90983 5.04216L6.69227 9.98574C9.81227 10.2751 11.7136 11.275 12.6749 11.9539C13.0149 12.1939 13.5376 12.0101 13.5643 11.5948C13.6276 10.6126 13.6423 8.92674 13.3325 6.57355C13.0227 4.22036 12.5721 2.59576 12.2568 1.66342C12.1235 1.26917 11.5711 1.2269 11.3048 1.54677C10.5412 2.46408 8.92939 3.95065 5.90983 5.04216ZM5.66939 9.91984L4.94751 5.35887L4.44795 5.50512C3.84261 5.67162 3.19151 5.82155 2.49163 5.94973C1.76709 6.08242 1.24865 6.74887 1.3448 7.47915L1.51888 8.80145C1.61502 9.53174 2.28829 10.0413 3.02248 9.98195C3.73168 9.92461 4.39941 9.90091 5.02722 9.90507L5.66939 9.91984ZM15.316 6.31234C15.4322 7.19522 14.9539 8.01931 14.1904 8.38137C14.1475 7.80511 14.0841 7.17317 13.9937 6.48643C13.9032 5.79969 13.8009 5.17287 13.6932 4.60514C14.5244 4.75727 15.1997 5.42947 15.316 6.31234ZM4.99089 13.7162L3.83715 10.9308C4.24526 10.9108 4.63691 10.9027 5.01252 10.905L5.6704 10.9201C5.78346 10.9247 5.89497 10.9302 6.00493 10.9366L6.83917 12.9506C7.05058 13.461 6.80821 14.0462 6.29782 14.2576C5.78743 14.469 5.2023 14.2266 4.99089 13.7162Z"
        fill="#01B14E" />
</svg>