<svg width="20" height="20" viewBox="0 0 20 20" fill="none" xmlns="http://www.w3.org/2000/svg">
    <path
        d="M14.4931 3C14.777 3.00007 15.0542 3.08645 15.2879 3.24768C15.5215 3.4089 15.7007 3.63735 15.8015 3.90273C15.9023 4.1681 15.9201 4.45787 15.8525 4.73358C15.7848 5.00929 15.635 5.25792 15.4228 5.4465L12.2272 8.2864C12.1164 8.38501 12.0277 8.50599 11.967 8.64136C11.9063 8.77674 11.875 8.92344 11.8751 9.0718V16.3C11.8751 16.4857 11.8014 16.6637 11.6701 16.795C11.5388 16.9262 11.3607 17 11.1751 17H7.90814C7.72248 17 7.54443 16.9262 7.41316 16.795C7.28188 16.6637 7.20813 16.4857 7.20813 16.3V9.0718C7.20826 8.92344 7.17694 8.77674 7.11625 8.64136C7.05556 8.50599 6.96687 8.38501 6.85602 8.2864L3.66047 5.4465C3.44826 5.25792 3.2984 5.00929 3.23075 4.73358C3.16311 4.45787 3.18088 4.1681 3.28172 3.90273C3.38256 3.63735 3.56169 3.4089 3.79536 3.24768C4.02903 3.08645 4.30619 3.00007 4.59009 3H14.4931ZM16.4602 14.725C16.553 14.725 16.642 14.7619 16.7077 14.8275C16.7733 14.8932 16.8102 14.9822 16.8102 15.075V15.775C16.8102 15.8678 16.7733 15.9569 16.7077 16.0225C16.642 16.0881 16.553 16.125 16.4602 16.125H13.077C12.9842 16.125 12.8952 16.0881 12.8295 16.0225C12.7639 15.9569 12.727 15.8678 12.727 15.775V15.075C12.727 14.9822 12.7639 14.8932 12.8295 14.8275C12.8952 14.7619 12.9842 14.725 13.077 14.725H16.4602ZM14.1452 4.1669H4.93799C4.87201 4.16689 4.80736 4.18553 4.75152 4.22067C4.69567 4.25581 4.65089 4.30603 4.62236 4.36552C4.59382 4.42501 4.58268 4.49136 4.59022 4.55691C4.59776 4.62246 4.62368 4.68454 4.66499 4.736L4.70839 4.7815L7.64983 7.3302C7.85952 7.51184 8.03114 7.73323 8.15477 7.98158C8.2784 8.22992 8.35161 8.5003 8.37015 8.7771L8.37505 8.9171V15.4831C8.37502 15.565 8.40373 15.6444 8.45617 15.7073C8.50861 15.7702 8.58147 15.8128 8.66205 15.8275L8.72505 15.8331H10.3582C10.4401 15.8331 10.5194 15.8044 10.5824 15.752C10.6453 15.6995 10.6878 15.6267 10.7026 15.5461L10.7082 15.4831V8.9171C10.7082 8.63985 10.7632 8.36535 10.8699 8.10944C10.9766 7.85353 11.1329 7.62129 11.3298 7.4261L11.4327 7.3302L14.3741 4.7815C14.4281 4.7348 14.4665 4.67273 14.4841 4.6036C14.5018 4.53448 14.4979 4.4616 14.473 4.39474C14.4481 4.32788 14.4034 4.27023 14.3448 4.22951C14.2862 4.18879 14.2166 4.16694 14.1452 4.1669ZM16.4602 11.5169C16.553 11.5169 16.642 11.5538 16.7077 11.6194C16.7733 11.6851 16.8102 11.7741 16.8102 11.8669V12.5669C16.8102 12.6597 16.7733 12.7487 16.7077 12.8144C16.642 12.88 16.553 12.9169 16.4602 12.9169H13.077C12.9842 12.9169 12.8952 12.88 12.8295 12.8144C12.7639 12.7487 12.727 12.6597 12.727 12.5669V11.8669C12.727 11.7741 12.7639 11.6851 12.8295 11.6194C12.8952 11.5538 12.9842 11.5169 13.077 11.5169H16.4602Z"
        fill="#01B14E" />
</svg>