<svg width="24" height="24" viewBox="0 0 24 24" fill="none" xmlns="http://www.w3.org/2000/svg">
    <path
        d="M20.2349 21.3747H3.76512C3.29081 21.3681 2.83851 21.1735 2.50758 20.8337C2.17664 20.4938 1.99414 20.0365 2.00014 19.5622V11.093C1.99976 10.6152 2.1851 10.156 2.51701 9.81238C2.67912 9.64457 2.87331 9.51107 3.08805 9.41981C3.30278 9.32855 3.53367 9.28139 3.76699 9.28114H3.87511V2.625H20.1249V9.27801H20.2349C20.4699 9.28127 20.702 9.33081 20.918 9.42379C21.1339 9.51677 21.3294 9.65137 21.4933 9.81991C21.6572 9.98845 21.7863 10.1876 21.8732 10.4061C21.9601 10.6245 22.0031 10.8579 21.9998 11.093V19.5622C22.0058 20.0365 21.8233 20.4938 21.4924 20.8337C21.1615 21.1735 20.7092 21.3681 20.2349 21.3747ZM18.2499 4.49997H5.75008V10.1249H5.62509L12 15.7498L18.3718 10.1249H18.2499V4.49997ZM20.1249 12.0792V11.9998C20.1249 11.8417 20.0442 10.9999 19.4999 11.3749L18.8749 11.9998L12 18.2497L5.12509 12.6248C4.6376 12.2098 3.87511 11.2142 3.87511 11.3749V18.8747C4.04171 19.121 4.25384 19.3331 4.5001 19.4997H19.4999C19.7802 19.3786 20.0037 19.1551 20.1249 18.8747V12.0792Z"
        fill="#5ACEFF" />
    <path d="M8.4585 7.84961H15.5417" stroke="url(#paint0_linear_1_52540)" stroke-width="3" stroke-linecap="round" />
    <defs>
        <linearGradient id="paint0_linear_1_52540" x1="7.12512" y1="7.84961" x2="17.0001" y2="7.84961"
            gradientUnits="userSpaceOnUse">
            <stop stop-color="#5ACEFF" />
            <stop offset="1" stop-color="#E7F8FF" />
        </linearGradient>
    </defs>
</svg>