<svg width="24" height="24" viewBox="0 0 24 24" fill="none" xmlns="http://www.w3.org/2000/svg">
    <path
        d="M18.5052 8.1512V8.15334L18.506 10.4619L18.5082 15.8458L11.7669 19.6906L5.02395 15.845L5.01753 7.56754C5.74903 6.48755 6.72955 5.59933 7.87638 4.97784C8.45929 4.66255 9.07868 4.41997 9.72066 4.25553C10.3822 4.08565 11.0686 4.00007 11.7601 4.00007C12.4914 3.99939 13.2196 4.09639 13.9253 4.28848C15.2926 4.66212 16.538 5.38807 17.5368 6.39379L19.3366 5.36809C18.3819 4.30518 17.2136 3.45576 15.9081 2.87537C14.6025 2.29499 13.1892 1.9967 11.7605 2.00003C10.0961 1.99576 8.4563 2.40098 6.98549 3.17996C5.51468 3.95894 4.25808 5.08778 3.32644 6.46696C3.10693 6.79303 2.99268 7.17729 2.99268 7.56925L2.99952 15.8467C3.00058 16.1988 3.09476 16.5443 3.27249 16.8482C3.45023 17.1521 3.7052 17.4036 4.01152 17.5771L11.7669 22L19.5206 17.578C20.1475 17.2207 20.5335 16.5596 20.5335 15.845L20.5292 8.72845C20.5288 7.95907 19.6858 7.47853 19.011 7.86279L18.5052 8.1512Z"
        fill="#F86B58" />
    <path d="M7.10059 10.4307L11.5073 13.1587C11.5605 13.1916 11.6275 13.1929 11.6819 13.162L21.0076 7.86328"
        stroke="url(#paint0_linear_1_52537)" stroke-width="2.18" stroke-linecap="round" />
    <defs>
        <linearGradient id="paint0_linear_1_52537" x1="6.45872" y1="10.2168" x2="20.3657" y2="10.2168"
            gradientUnits="userSpaceOnUse">
            <stop stop-color="#F86B58" />
            <stop offset="1" stop-color="#FFEFEC" />
        </linearGradient>
    </defs>
</svg>