<svg width="24" height="24" viewBox="0 0 24 24" fill="none" xmlns="http://www.w3.org/2000/svg">
    <circle cx="12.0002" cy="6.8" r="3.925" stroke="#1EB65B" stroke-width="1.75" />
    <path
        d="M4.875 17.7337C4.875 15.2715 6.87106 13.2754 9.33333 13.2754H14.6667C17.1289 13.2754 19.125 15.2715 19.125 17.7337V19.3337C19.125 20.3232 18.3228 21.1254 17.3333 21.1254H6.66667C5.67716 21.1254 4.875 20.3232 4.875 19.3337V17.7337Z"
        stroke="#1EB65B" stroke-width="1.75" />
    <path
        d="M11.359 15.2762L10.5258 17.5222C10.4525 17.7199 10.5282 17.9419 10.707 18.0537L11.7643 18.7146C11.9085 18.8047 12.0913 18.8047 12.2355 18.7146L13.2928 18.0537C13.4716 17.9419 13.5473 17.7199 13.474 17.5222L12.6408 15.2762C12.5761 15.102 12.4099 14.9863 12.2241 14.9863H11.7757C11.5899 14.9863 11.4237 15.102 11.359 15.2762Z"
        fill="url(#paint0_linear_1_52538)" />
    <path
        d="M12.4384 14.9869H11.5612C11.4837 14.9869 11.4118 14.9466 11.3715 14.8804L11.079 14.4004C10.9887 14.2523 11.0953 14.0625 11.2687 14.0625H12.7309C12.9044 14.0625 13.0109 14.2523 12.9207 14.4004L12.6282 14.8804C12.5878 14.9466 12.5159 14.9869 12.4384 14.9869Z"
        fill="#1EB65B" />
    <defs>
        <linearGradient id="paint0_linear_1_52538" x1="11.9999" y1="14.6634" x2="11.9999" y2="18.8619"
            gradientUnits="userSpaceOnUse">
            <stop stop-color="#1EB65B" />
            <stop offset="1" stop-color="#D2F1DE" />
        </linearGradient>
    </defs>
</svg>