<svg width="24" height="24" viewBox="0 0 24 24" fill="none" xmlns="http://www.w3.org/2000/svg">
    <g clip-path="url(#clip0_1_52536)">
        <path
            d="M14.4977 17.7365C14.4977 19.4078 15.6441 20.9489 17.293 21.1252H4.17041C3.54909 21.1252 3.04541 20.6215 3.04541 20.0002V19.5292C3.04541 16.4961 5.19686 14.2266 7.63126 14.2266H16.3686C16.6975 14.2266 17.0197 14.2668 17.3313 14.344C15.6619 14.5004 14.4977 16.0523 14.4977 17.7365Z"
            stroke="#1EB65B" stroke-width="1.75" />
        <path
            d="M16.0478 6.86486C16.0478 9.06001 14.2476 10.8547 12.008 10.8547C9.76849 10.8547 7.96826 9.06001 7.96826 6.86486C7.96826 4.66972 9.76849 2.875 12.008 2.875C14.2476 2.875 16.0478 4.66972 16.0478 6.86486Z"
            stroke="#1EB65B" stroke-width="1.75" />
        <path
            d="M21.01 16.5938H17.6243C17.1719 16.5938 16.8052 17.0778 16.8052 17.6748C16.8052 18.2719 17.1719 18.7559 17.6243 18.7559H21.01C21.4624 18.7559 21.8292 18.2719 21.8292 17.6748C21.8292 17.0778 21.4624 16.5938 21.01 16.5938Z"
            fill="url(#paint0_linear_1_52536)" />
    </g>
    <defs>
        <linearGradient id="paint0_linear_1_52536" x1="16.8268" y1="17.3554" x2="21.8368" y2="17.6814"
            gradientUnits="userSpaceOnUse">
            <stop stop-color="#1EB65B" />
            <stop offset="1" stop-color="#EDFFF4" />
        </linearGradient>
        <clipPath id="clip0_1_52536">
            <rect width="24" height="24" fill="white" />
        </clipPath>
    </defs>
</svg>