<svg width="36" height="36" viewBox="0 0 36 36" fill="none" xmlns="http://www.w3.org/2000/svg">
<circle cx="18" cy="18" r="14.75" stroke="white" stroke-width="2"/>
<path d="M19.012 16.174L19.66 10.162C19.66 10.126 19.642 10.072 19.624 10.036C19.606 10.018 19.588 10 19.534 10H19.354C19.318 10 19.264 10.018 19.228 10.072L13.018 19.252C13 19.288 13 19.36 13 19.396C13.018 19.432 13.09 19.486 13.144 19.486H16.348L15.502 25.606C15.502 25.642 15.502 25.696 15.52 25.732C15.538 25.75 15.61 25.768 15.646 25.768H15.754C15.79 25.768 15.844 25.75 15.88 25.696L22.396 16.39C22.414 16.354 22.414 16.282 22.414 16.246C22.396 16.21 22.324 16.156 22.27 16.156H19.012V16.174Z" fill="white"/>
</svg>
