<svg width="20" height="20" viewBox="0 0 20 20" fill="none" xmlns="http://www.w3.org/2000/svg">
    <circle cx="10" cy="10" r="9.5" fill="#1EB65B" stroke="white" />
    <path fill-rule="evenodd" clip-rule="evenodd"
        d="M13.6271 12.9453C13.9171 12.9453 14.1521 13.1692 14.1521 13.4453C14.1521 13.7214 13.9171 13.9453 13.6271 13.9453H10.4771C10.1872 13.9453 9.95215 13.7214 9.95215 13.4453C9.95215 13.1692 10.1872 12.9453 10.4771 12.9453H13.6271Z"
        fill="white" />
    <path fill-rule="evenodd" clip-rule="evenodd"
        d="M10.7729 6.31746L12.8517 8.3668L7.42603 13.9662L5.34626 13.9662L5.34724 11.9169L10.7729 6.31746Z"
        fill="white" />
    <path opacity="0.4" fill-rule="evenodd" clip-rule="evenodd"
        d="M13.3361 5.12451L13.9619 5.74144C14.3645 6.13831 14.3784 6.80336 13.9929 7.22686C13.9901 7.22991 13.9873 7.23293 13.9845 7.23594L13.5406 7.71224L11.4569 5.65802L11.9176 5.16367C12.3045 4.74844 12.9369 4.73098 13.3361 5.12451Z"
        fill="white" />
</svg>