<svg width="24" height="24" viewBox="0 0 24 24" fill="none" xmlns="http://www.w3.org/2000/svg">
    <g clip-path="url(#clip0_1_52542)">
        <path fill-rule="evenodd" clip-rule="evenodd"
            d="M9.25268 3.48828C6.68118 3.78862 4.68563 5.97467 4.68563 8.6268C4.68563 11.1575 6.50264 13.2638 8.90324 13.7123C9.19163 13.6012 9.49003 13.5102 9.79669 13.441C8.31615 12.1824 7.37716 10.3046 7.37716 8.20747C7.37716 6.38029 8.08997 4.71959 9.25268 3.48828ZM7.6782 14.3427H6.87304C4.11162 14.3427 1.87305 16.5813 1.87305 19.3427V21.0006H4.76943V19.7364C4.76943 17.4814 5.92595 15.4966 7.6782 14.3427Z"
            fill="url(#paint0_linear_1_52542)" />
        <mask id="path-2-inside-1_1_52542" fill="white">
            <path fill-rule="evenodd" clip-rule="evenodd"
                d="M19.5823 8.33003C19.5823 5.38633 17.1959 3 14.2522 3C11.3086 3 8.92222 5.38633 8.92222 8.33003C8.92222 11.2737 11.3086 13.6601 14.2522 13.6601C17.1959 13.6601 19.5823 11.2737 19.5823 8.33003ZM22.1274 19.3422C22.1274 16.5808 19.8889 14.3422 17.1274 14.3422H11.3774C8.61602 14.3422 6.37744 16.5808 6.37744 19.3422C6.37744 20.2578 7.11972 21.0001 8.03537 21.0001H20.4695C21.3851 21.0001 22.1274 20.2578 22.1274 19.3422Z" />
        </mask>
        <path
            d="M14.2522 5C16.0914 5 17.5823 6.4909 17.5823 8.33003H21.5823C21.5823 4.28176 18.3005 1 14.2522 1V5ZM10.9222 8.33003C10.9222 6.4909 12.4131 5 14.2522 5V1C10.204 1 6.92222 4.28177 6.92222 8.33003H10.9222ZM14.2522 11.6601C12.4131 11.6601 10.9222 10.1692 10.9222 8.33003H6.92222C6.92222 12.3783 10.204 15.6601 14.2522 15.6601V11.6601ZM17.5823 8.33003C17.5823 10.1692 16.0914 11.6601 14.2522 11.6601V15.6601C18.3005 15.6601 21.5823 12.3783 21.5823 8.33003H17.5823ZM17.1274 16.3422C18.7843 16.3422 20.1274 17.6853 20.1274 19.3422H24.1274C24.1274 15.4762 20.9934 12.3422 17.1274 12.3422V16.3422ZM11.3774 16.3422H17.1274V12.3422H11.3774V16.3422ZM8.37744 19.3422C8.37744 17.6853 9.72059 16.3422 11.3774 16.3422V12.3422C7.51145 12.3422 4.37744 15.4762 4.37744 19.3422H8.37744ZM8.03537 19.0001C8.22429 19.0001 8.37744 19.1533 8.37744 19.3422H4.37744C4.37744 21.3624 6.01515 23.0001 8.03537 23.0001V19.0001ZM20.4695 19.0001H8.03537V23.0001H20.4695V19.0001ZM20.1274 19.3422C20.1274 19.1533 20.2806 19.0001 20.4695 19.0001V23.0001C22.4897 23.0001 24.1274 21.3624 24.1274 19.3422H20.1274Z"
            fill="#FF842A" mask="url(#path-2-inside-1_1_52542)" />
    </g>
    <defs>
        <linearGradient id="paint0_linear_1_52542" x1="5.83484" y1="3.48828" x2="5.83484" y2="21.0006"
            gradientUnits="userSpaceOnUse">
            <stop stop-color="#FF842A" />
            <stop offset="1" stop-color="#FFDDC5" />
        </linearGradient>
        <clipPath id="clip0_1_52542">
            <rect width="24" height="24" fill="white" />
        </clipPath>
    </defs>
</svg>