<svg width="32" height="32" viewBox="0 0 32 32" fill="none" xmlns="http://www.w3.org/2000/svg">
    <g filter="url(#filter0_i_1_52547)">
        <rect x="5" y="3" width="22" height="22" rx="2" fill="#01B14E" />
    </g>
    <g filter="url(#filter1_bi_1_52547)">
        <rect x="2" y="9" width="28" height="20" rx="3" fill="#01B14E" fill-opacity="0.2" />
        <rect x="2.25" y="9.25" width="27.5" height="19.5" rx="2.75" stroke="url(#paint0_linear_1_52547)"
            stroke-width="0.5" />
    </g>
    <path
        d="M19.0092 12.5399C19.0092 12.0624 18.6758 11.8642 18.2614 12.0984L15.5497 13.639C15.1353 13.8732 15.1263 14.2606 15.5407 14.5038L18.2344 16.0804C18.6488 16.3147 18.9821 16.1345 18.9821 15.657L19.0092 12.5399ZM16.9821 24.2696L14.2614 22.7291C13.847 22.4948 13.5137 22.693 13.5137 23.1705L13.5317 26.2696C13.5317 26.7471 13.874 26.9453 14.2794 26.693L16.9731 25.1255C17.3966 24.8912 17.3966 24.5038 16.9821 24.2696Z"
        fill="white" />
    <path
        d="M14.3514 23.9537H11.3604C9.79279 23.9537 8.53153 24.0347 8.53153 22.4762V16.6203C8.53153 15.0528 9.8018 15.1429 11.3604 15.1429H12.6757V13.6113H11.3604C8.94595 13.6113 7 14.2239 7 16.6203V22.4762C7 24.8906 8.96396 25.4852 11.3604 25.4852H14.3694L14.3514 23.9537ZM17.6486 15.1429H20.6396C22.2072 15.1429 23.4685 15.0618 23.4685 16.6203V22.4762C23.4685 24.0438 22.1982 23.9537 20.6396 23.9537H19.3243V25.4852H20.6396C23.0541 25.4852 25 24.8726 25 22.4762V16.6203C25 14.2059 23.036 13.6113 20.6396 13.6113H17.6306L17.6486 15.1429Z"
        fill="white" />
    <path
        d="M12.0542 19.3327C12.0542 19.5835 12.1539 19.8241 12.3313 20.0015C12.5087 20.1789 12.7493 20.2786 13.0001 20.2786C13.251 20.2786 13.4916 20.1789 13.669 20.0015C13.8464 19.8241 13.9461 19.5835 13.9461 19.3327C13.9461 19.0818 13.8464 18.8412 13.669 18.6638C13.4916 18.4864 13.251 18.3867 13.0001 18.3867C12.7493 18.3867 12.5087 18.4864 12.3313 18.6638C12.1539 18.8412 12.0542 19.0818 12.0542 19.3327Z"
        fill="white" />
    <path
        d="M15.27 19.3327C15.27 19.5835 15.3697 19.8241 15.5471 20.0015C15.7245 20.1789 15.9651 20.2786 16.216 20.2786C16.4668 20.2786 16.7075 20.1789 16.8849 20.0015C17.0622 19.8241 17.1619 19.5835 17.1619 19.3327C17.1619 19.0818 17.0622 18.8412 16.8849 18.6638C16.7075 18.4864 16.4668 18.3867 16.216 18.3867C15.9651 18.3867 15.7245 18.4864 15.5471 18.6638C15.3697 18.8412 15.27 19.0818 15.27 19.3327Z"
        fill="white" />
    <path
        d="M18.2432 19.3327C18.2432 19.5835 18.3428 19.8241 18.5202 20.0015C18.6976 20.1789 18.9382 20.2786 19.1891 20.2786C19.44 20.2786 19.6806 20.1789 19.858 20.0015C20.0354 19.8241 20.1351 19.5835 20.1351 19.3327C20.1351 19.0818 20.0354 18.8412 19.858 18.6638C19.6806 18.4864 19.44 18.3867 19.1891 18.3867C18.9382 18.3867 18.6976 18.4864 18.5202 18.6638C18.3428 18.8412 18.2432 19.0818 18.2432 19.3327Z"
        fill="white" />
    <defs>
        <filter id="filter0_i_1_52547" x="5" y="3" width="22" height="23.6" filterUnits="userSpaceOnUse"
            color-interpolation-filters="sRGB">
            <feFlood flood-opacity="0" result="BackgroundImageFix" />
            <feBlend mode="normal" in="SourceGraphic" in2="BackgroundImageFix" result="shape" />
            <feColorMatrix in="SourceAlpha" type="matrix" values="0 0 0 0 0 0 0 0 0 0 0 0 0 0 0 0 0 0 127 0"
                result="hardAlpha" />
            <feOffset dy="1.6" />
            <feGaussianBlur stdDeviation="1.6" />
            <feComposite in2="hardAlpha" operator="arithmetic" k2="-1" k3="1" />
            <feColorMatrix type="matrix" values="0 0 0 0 1 0 0 0 0 1 0 0 0 0 1 0 0 0 0.35 0" />
            <feBlend mode="normal" in2="shape" result="effect1_innerShadow_1_52547" />
        </filter>
        <filter id="filter1_bi_1_52547" x="-4.4" y="2.6" width="40.8" height="32.8" filterUnits="userSpaceOnUse"
            color-interpolation-filters="sRGB">
            <feFlood flood-opacity="0" result="BackgroundImageFix" />
            <feGaussianBlur in="BackgroundImageFix" stdDeviation="3.2" />
            <feComposite in2="SourceAlpha" operator="in" result="effect1_backgroundBlur_1_52547" />
            <feBlend mode="normal" in="SourceGraphic" in2="effect1_backgroundBlur_1_52547" result="shape" />
            <feColorMatrix in="SourceAlpha" type="matrix" values="0 0 0 0 0 0 0 0 0 0 0 0 0 0 0 0 0 0 127 0"
                result="hardAlpha" />
            <feOffset />
            <feGaussianBlur stdDeviation="0.733333" />
            <feComposite in2="hardAlpha" operator="arithmetic" k2="-1" k3="1" />
            <feColorMatrix type="matrix" values="0 0 0 0 1 0 0 0 0 1 0 0 0 0 1 0 0 0 0.25 0" />
            <feBlend mode="normal" in2="shape" result="effect2_innerShadow_1_52547" />
        </filter>
        <linearGradient id="paint0_linear_1_52547" x1="2.7" y1="8.70588" x2="17.5264" y2="37.8743"
            gradientUnits="userSpaceOnUse">
            <stop stop-color="#C1FFA4" />
            <stop offset="1" stop-color="#3AE656" />
        </linearGradient>
    </defs>
</svg>