<svg width="16" height="16" viewBox="0 0 16 16" fill="none" xmlns="http://www.w3.org/2000/svg">
    <path
        d="M14.9501 7.75C13.6501 5.6 11.3501 3 8.0001 3C4.6501 3 2.4001 5.6 1.0501 7.75C0.950098 7.9 0.950098 8.1 1.0501 8.25C2.4001 10.4 4.6501 13 8.0001 13C10.9001 13 13.8501 11 14.9501 8.2C15.0001 8.05 15.0001 7.9 14.9501 7.75ZM8.0001 10.5C6.6001 10.5 5.5001 9.4 5.5001 8C5.5001 6.6 6.6001 5.5 8.0001 5.5C9.4001 5.5 10.5001 6.6 10.5001 8C10.5001 9.4 9.4001 10.5 8.0001 10.5ZM6.5001 8C6.5001 8.82843 7.17167 9.5 8.0001 9.5C8.82853 9.5 9.5001 8.82843 9.5001 8C9.5001 7.17157 8.82853 6.5 8.0001 6.5C7.17167 6.5 6.5001 7.17157 6.5001 8Z"
        fill="#01B14E" />
    <path
        d="M12.2067 2.30746L2.3072 12.207C1.91668 12.5975 1.91668 13.2306 2.3072 13.6212C2.69773 14.0117 3.33089 14.0117 3.72142 13.6212L13.6209 3.72167C14.0114 3.33115 14.0114 2.69799 13.6209 2.30746C13.2304 1.91694 12.5972 1.91694 12.2067 2.30746Z"
        fill="#00D622" />
</svg>