<svg width="16" height="16" viewBox="0 0 16 16" fill="none" xmlns="http://www.w3.org/2000/svg">
<path d="M8.1594 15.9841C8.03804 16.0046 7.91411 16.0046 7.79275 15.9841C7.52497 15.9374 1.23633 14.7466 1.23633 5.48259V2.97718C1.23633 2.69979 1.35534 2.43745 1.56586 2.24677C1.6718 2.15265 1.79541 2.08056 1.92949 2.0347C2.06357 1.98883 2.20543 1.97011 2.34682 1.97962C2.36154 1.98186 2.53014 1.99178 2.79057 1.99178C3.22408 1.99178 4.08439 1.96458 4.88487 1.7739C6.10702 1.48436 7.35636 0.196944 7.39859 0.16975C7.57115 0.0598455 7.77149 0.00146484 7.97608 0.00146484C8.18066 0.00146484 8.381 0.0598455 8.55356 0.16975C8.90069 0.394984 10.0953 1.52883 11.129 1.7739C11.9295 1.96458 12.7748 1.99178 13.2086 1.99178C13.4716 1.99178 13.6376 1.98186 13.6524 1.97962C13.6773 1.97706 13.6994 1.97706 13.7243 1.97706C13.987 1.97706 14.2398 2.07368 14.4333 2.24677C14.5372 2.33844 14.6203 2.4512 14.6771 2.57754C14.7339 2.70388 14.7632 2.84089 14.7629 2.97942V5.48259C14.7629 14.7441 8.42718 15.9374 8.1594 15.9841ZM13.2112 2.99445C12.666 2.99445 11.7635 2.95478 10.8836 2.74682C9.4433 2.40545 7.97864 1.00158 7.97864 1.00158C7.97864 1.00158 6.5754 2.40545 5.13537 2.74682C4.25523 2.95478 3.3383 2.99445 2.79281 2.99445C2.4732 2.99445 2.2774 2.97974 2.2774 2.97974V5.48515C2.2774 14.0162 7.97864 15.0013 7.97864 15.0013C7.97864 15.0013 13.7243 14.0162 13.7243 5.48515L13.7269 2.97974C13.7269 2.97974 13.5285 2.99445 13.2112 2.99445ZM6.64739 10.4848H11.7388V11.4519H6.64739V10.4848ZM7.23223 4.7109H11.3191V9.79467H7.23223V4.7109ZM8.28193 8.84254H10.269V7.72533H8.28193V8.84254ZM8.28193 6.78024H10.269V5.66303H8.28193V6.78024ZM7.03739 7.53785C6.96654 7.88561 6.93382 8.24006 6.93981 8.59491L6.25739 8.72257V10.687C6.25739 10.9519 6.19948 11.1621 6.08302 11.3169C5.96688 11.4721 5.80564 11.5693 5.5996 11.6093C5.39324 11.6493 5.04259 11.6695 4.54765 11.6695C4.4888 11.3354 4.42137 11.0029 4.34545 10.6723C4.53294 10.687 4.69642 10.6946 4.83656 10.6946C5.01636 10.6946 5.12834 10.6627 5.17217 10.599C5.21568 10.5353 5.23775 10.4598 5.23775 10.3722V8.93245L4.35281 9.12729L4.27027 8.05518L5.23775 7.8901V6.61548H4.34545V5.67807H5.23775V4.3209H6.25739V5.67807H6.81983V6.61548H6.25739V7.69526L7.03739 7.53785Z" fill="#E65256"/>
</svg>
