<svg width="32" height="32" viewBox="0 0 32 32" fill="none" xmlns="http://www.w3.org/2000/svg">
    <g filter="url(#filter0_i_1_52546)">
        <rect x="5" y="3" width="22" height="22" rx="2" fill="#01B14E" />
    </g>
    <g filter="url(#filter1_bi_1_52546)">
        <rect x="2" y="9" width="28" height="20" rx="3" fill="#01B14E" fill-opacity="0.2" />
        <rect x="2.25" y="9.25" width="27.5" height="19.5" rx="2.75" stroke="url(#paint0_linear_1_52546)"
            stroke-width="0.5" />
    </g>
    <path
        d="M22.5422 23.4575C22.6682 23.4574 22.7917 23.4923 22.899 23.5582C23.0063 23.6242 23.0932 23.7187 23.1499 23.8312C23.2067 23.9437 23.231 24.0697 23.2203 24.1952C23.2096 24.3207 23.1642 24.4408 23.0892 24.542L23.0212 24.6204L21.4431 26.1828C21.3216 26.3015 21.16 26.3705 20.9901 26.376C20.8203 26.3815 20.6545 26.3232 20.5256 26.2126C20.3966 26.102 20.3137 25.9471 20.2932 25.7784C20.2728 25.6097 20.3163 25.4394 20.4152 25.3012L20.4863 25.2175L20.891 24.8181L17.5676 24.817C17.4047 24.8171 17.2472 24.7586 17.1238 24.6522C17.0003 24.5459 16.9192 24.3988 16.8952 24.2377L16.8878 24.1373C16.8878 23.9744 16.9463 23.8169 17.0526 23.6935C17.159 23.57 17.3061 23.4889 17.4672 23.4649L17.5676 23.4575H22.5422ZM21.2288 13C21.9334 12.9999 22.6116 13.2682 23.1254 13.7504C23.6392 14.2326 23.9501 14.8924 23.9948 15.5956L24 15.7712V18.3856C24.0002 18.5574 23.9355 18.7228 23.8187 18.8487C23.7019 18.9746 23.5418 19.0517 23.3706 19.0644C23.1993 19.0771 23.0296 19.0246 22.8955 18.9173C22.7615 18.81 22.673 18.6559 22.6478 18.486L22.6405 18.3856V15.7712C22.6406 15.4203 22.51 15.0819 22.2741 14.8221C22.0382 14.5622 21.714 14.3995 21.3647 14.3658L21.2288 14.3595H10.7712C10.4203 14.3594 10.0819 14.49 9.82207 14.7259C9.56223 14.9618 9.39955 15.286 9.36575 15.6353L9.35948 15.7712V22.0458C9.35941 22.3967 9.49004 22.7351 9.72592 22.9949C9.96179 23.2548 10.286 23.4175 10.6353 23.4513L10.7712 23.4575H14.9678C15.1396 23.4573 15.305 23.5221 15.4309 23.6388C15.5568 23.7556 15.6339 23.9157 15.6466 24.087C15.6593 24.2582 15.6068 24.4279 15.4995 24.562C15.3922 24.6961 15.2381 24.7846 15.0682 24.8097L14.9678 24.817H10.7712C10.0664 24.8171 9.3881 24.5486 8.87425 24.0662C8.3604 23.5839 8.04964 22.9238 8.00523 22.2204L8 22.0458V15.7712C7.99965 15.0664 8.26785 14.388 8.75004 13.8739C9.23223 13.3599 9.89217 13.0489 10.5956 13.0042L10.7712 13H21.2288ZM19.6288 19.4753C19.7426 19.5898 19.8119 19.7411 19.8243 19.902C19.8368 20.063 19.7916 20.2231 19.6967 20.3537L19.6235 20.4374L19.2188 20.8369H22.5443C22.707 20.8371 22.8643 20.8957 22.9875 21.002C23.1107 21.1083 23.1917 21.2553 23.2157 21.4162L23.223 21.5166C23.223 21.6795 23.1646 21.837 23.0582 21.9604C22.9519 22.0839 22.8048 22.165 22.6437 22.189L22.5433 22.1964H17.5686C17.4427 22.1965 17.3191 22.1616 17.2118 22.0957C17.1045 22.0297 17.0176 21.9352 16.9609 21.8227C16.9042 21.7102 16.8798 21.5842 16.8906 21.4587C16.9013 21.3332 16.9467 21.2131 17.0217 21.1119L17.0907 21.0335L18.6677 19.4711C18.7957 19.3443 18.9689 19.2735 19.1491 19.2742C19.3293 19.275 19.5018 19.3474 19.6288 19.4753ZM15.4771 15.6081C15.6488 15.6079 15.8143 15.6727 15.9402 15.7894C16.0661 15.9062 16.1432 16.0663 16.1559 16.2375C16.1686 16.4088 16.116 16.5785 16.0088 16.7126C15.9015 16.8466 15.7474 16.9351 15.5775 16.9603L15.4771 16.9676H11.8118C11.64 16.9678 11.4746 16.903 11.3487 16.7863C11.2228 16.6695 11.1457 16.5094 11.133 16.3382C11.1203 16.1669 11.1728 15.9972 11.2801 15.8631C11.3874 15.7291 11.5415 15.6406 11.7114 15.6154L11.8118 15.6081H15.4771Z"
        fill="white" />
    <defs>
        <filter id="filter0_i_1_52546" x="5" y="3" width="22" height="23.6" filterUnits="userSpaceOnUse"
            color-interpolation-filters="sRGB">
            <feFlood flood-opacity="0" result="BackgroundImageFix" />
            <feBlend mode="normal" in="SourceGraphic" in2="BackgroundImageFix" result="shape" />
            <feColorMatrix in="SourceAlpha" type="matrix" values="0 0 0 0 0 0 0 0 0 0 0 0 0 0 0 0 0 0 127 0"
                result="hardAlpha" />
            <feOffset dy="1.6" />
            <feGaussianBlur stdDeviation="1.6" />
            <feComposite in2="hardAlpha" operator="arithmetic" k2="-1" k3="1" />
            <feColorMatrix type="matrix" values="0 0 0 0 1 0 0 0 0 1 0 0 0 0 1 0 0 0 0.35 0" />
            <feBlend mode="normal" in2="shape" result="effect1_innerShadow_1_52546" />
        </filter>
        <filter id="filter1_bi_1_52546" x="-4.4" y="2.6" width="40.8" height="32.8" filterUnits="userSpaceOnUse"
            color-interpolation-filters="sRGB">
            <feFlood flood-opacity="0" result="BackgroundImageFix" />
            <feGaussianBlur in="BackgroundImageFix" stdDeviation="3.2" />
            <feComposite in2="SourceAlpha" operator="in" result="effect1_backgroundBlur_1_52546" />
            <feBlend mode="normal" in="SourceGraphic" in2="effect1_backgroundBlur_1_52546" result="shape" />
            <feColorMatrix in="SourceAlpha" type="matrix" values="0 0 0 0 0 0 0 0 0 0 0 0 0 0 0 0 0 0 127 0"
                result="hardAlpha" />
            <feOffset />
            <feGaussianBlur stdDeviation="0.733333" />
            <feComposite in2="hardAlpha" operator="arithmetic" k2="-1" k3="1" />
            <feColorMatrix type="matrix" values="0 0 0 0 1 0 0 0 0 1 0 0 0 0 1 0 0 0 0.25 0" />
            <feBlend mode="normal" in2="shape" result="effect2_innerShadow_1_52546" />
        </filter>
        <linearGradient id="paint0_linear_1_52546" x1="2.7" y1="8.70588" x2="17.5264" y2="37.8743"
            gradientUnits="userSpaceOnUse">
            <stop stop-color="#C1FFA4" />
            <stop offset="1" stop-color="#3AE656" />
        </linearGradient>
    </defs>
</svg>