<svg width="24" height="24" viewBox="0 0 24 24" fill="none" xmlns="http://www.w3.org/2000/svg">
    <path
        d="M14.8571 14.3801C14.8571 14.1275 14.9575 13.8853 15.1361 13.7067C15.3147 13.5281 15.5569 13.4277 15.8095 13.4277C16.0621 13.4277 15.9044 13.5281 16.083 13.7067C16.2616 13.8853 16.3619 14.1275 16.3619 14.3801V18.1906C16.3619 20.293 15.1538 21.6992 13.0524 21.6992C12.7998 21.6992 12.4576 21.6988 12.2789 21.5202C12.1003 21.3416 12 21.2517 12 20.9992C12 20.7466 12.0214 20.5778 12.2 20.3992C12.3786 20.2206 12.6998 20.1944 12.9524 20.1944C14.0024 20.1944 14.8571 19.2406 14.8571 18.1906V14.3801Z"
        fill="#01B14E" />
    <path
        d="M4.93347 10.5714C4.93347 6.88952 8.31823 3.50476 12.0001 3.50476C15.682 3.50476 19.0668 6.88952 19.0668 10.5714H20.5716C20.5716 5.83762 16.7339 2 12.0001 2C7.26633 2 3.42871 5.83762 3.42871 10.5714H4.93347ZM4.93347 10.5714C4.93347 6.88952 8.31823 3.50476 12.0001 3.50476C15.682 3.50476 19.0668 6.88952 19.0668 10.5714H20.5716C20.5716 5.83762 16.7339 2 12.0001 2C7.26633 2 3.42871 5.83762 3.42871 10.5714H4.93347Z"
        fill="#01B14E" />
    <path
        d="M16.362 10.1751V14.776C16.362 14.7789 16.3635 14.7803 16.3611 14.7803H19.0678C19.0678 14.7803 19.0668 14.7813 19.0668 14.776V10.1755C19.0668 10.1727 19.0654 10.1713 19.0678 10.1713H16.3611C16.3611 10.1713 16.362 10.1698 16.362 10.1751ZM14.8573 10.5751C14.8566 10.3246 14.9053 10.0765 15.0007 9.8449C15.0961 9.61331 15.2362 9.40282 15.413 9.22548C15.5899 9.04814 15.8 8.90744 16.0313 8.81143C16.2626 8.71543 16.5106 8.66601 16.7611 8.66602H18.6678C19.7201 8.66602 20.5716 9.52316 20.5716 10.5751V14.376C20.5723 14.6265 20.5235 14.8746 20.4281 15.1062C20.3328 15.3378 20.1927 15.5483 20.0158 15.7256C19.839 15.9029 19.6288 16.0436 19.3975 16.1396C19.1662 16.2356 18.9182 16.2851 18.6678 16.2851H16.7611C15.7087 16.2851 14.8573 15.4279 14.8573 14.376V10.5751ZM4.93348 10.1751V14.776C4.93348 14.7789 4.93491 14.7803 4.93253 14.7803H7.63919C7.63919 14.7803 7.63824 14.7813 7.63824 14.776V10.1755C7.63824 10.1727 7.63681 10.1713 7.63919 10.1713H4.93253C4.93253 10.1713 4.93348 10.1698 4.93348 10.1751ZM3.42872 10.5751C3.42803 10.3246 3.47676 10.0765 3.57213 9.8449C3.6675 9.61331 3.80762 9.40282 3.98448 9.22548C4.16133 9.04814 4.37144 8.90744 4.60276 8.81143C4.83408 8.71543 5.08207 8.66601 5.33253 8.66602H7.23919C8.29157 8.66602 9.143 9.52316 9.143 10.5751V14.376C9.14369 14.6265 9.09495 14.8746 8.99959 15.1062C8.90422 15.3378 8.7641 15.5483 8.58724 15.7256C8.41039 15.9029 8.20028 16.0436 7.96896 16.1396C7.73764 16.2356 7.48964 16.2851 7.23919 16.2851H5.33253C4.28015 16.2851 3.42872 15.4279 3.42872 14.376V10.5751Z"
        fill="#01B14E" />
</svg>