<svg width="24" height="24" viewBox="0 0 24 24" fill="none" xmlns="http://www.w3.org/2000/svg">
<path d="M12.0466 12.0604H12.7757V14.6748H12.0466V12.0604ZM10.462 12.619H14.3362V13.1062H10.462V12.619ZM12.9143 12.8336C13.2456 13.3207 13.8843 13.8167 14.5109 14.0849C14.3483 14.1877 14.1193 14.3798 13.9988 14.5139C13.3662 14.1787 12.7456 13.5754 12.372 12.981L12.9143 12.8336ZM11.9502 12.7933L12.5166 12.9408C12.125 13.5709 11.4562 14.1653 10.7452 14.5005C10.6307 14.3709 10.4018 14.1787 10.2451 14.076C10.932 13.8123 11.6008 13.3028 11.9502 12.7933ZM11.5465 11.1443V11.7431H13.318V11.1443H11.5465ZM10.8597 10.675H14.041V12.2168H10.8597V10.675ZM10.0704 10.4873L10.7452 10.6482C10.3415 11.4079 9.69682 12.2079 9.02802 12.7129C8.96777 12.5878 8.76894 12.2928 8.64844 12.1632C9.20878 11.761 9.75105 11.1264 10.0704 10.4873ZM9.49196 11.7252L10.1728 11.2158L10.1788 11.2202V14.6614H9.49196V11.7252Z" fill="#F86B58"/>
<rect x="2.82422" y="8.0127" width="18.35" height="12.4875" rx="1.125" stroke="#F86B58" stroke-width="1.75"/>
<circle cx="6.97383" cy="17.1877" r="1.675" fill="#F86B58"/>
<circle cx="11.9992" cy="17.1877" r="1.675" fill="#F86B58"/>
<circle cx="17.0246" cy="17.1877" r="1.675" fill="#F86B58"/>
<path d="M6.13672 4.625H17.8617" stroke="url(#paint0_linear_1390_20692)" stroke-width="2" stroke-linecap="round"/>
<defs>
<linearGradient id="paint0_linear_1390_20692" x1="5.59556" y1="5.065" x2="17.3206" y2="5.065" gradientUnits="userSpaceOnUse">
<stop stop-color="#F86B58"/>
<stop offset="1" stop-color="#FFEFEC"/>
</linearGradient>
</defs>
</svg>
