<svg width="24" height="24" viewBox="0 0 24 24" fill="none" xmlns="http://www.w3.org/2000/svg">
    <path
        d="M12 2C11.0335 2 10.25 2.7835 10.25 3.75L10.25 3.75921C7.78996 4.50816 6 6.79505 6 9.5L6 14L4.58579 15.4142C4.21071 15.7893 4 16.298 4 16.8284V18C4 18.5523 4.44772 19 5 19H19C19.5523 19 20 18.5523 20 18V16.8284C20 16.298 19.7893 15.7893 19.4142 15.4142L18 14V9.5C18 6.79504 16.21 4.50816 13.75 3.75921L13.75 3.75C13.75 2.7835 12.9665 2 12 2ZM7.5 14L7.5 9.5C7.5 7.01472 9.51472 5 12 5C14.4853 5 16.5 7.01472 16.5 9.5V14C16.5 14.3978 16.658 14.7794 16.9393 15.0607L18.3536 16.4749C18.4473 16.5686 18.5 16.6958 18.5 16.8284V17.5H5.5V16.8284C5.5 16.6958 5.55268 16.5686 5.64645 16.4749L7.06066 15.0607C7.34196 14.7794 7.5 14.3978 7.5 14ZM14 20C14 21.1046 13.1046 22 12 22C10.8954 22 10 21.1046 10 20H14Z"
        fill="#01B14E" />
</svg>