<svg width="24" height="24" viewBox="0 0 24 24" fill="none" xmlns="http://www.w3.org/2000/svg">
<path d="M14.3438 3.51855H3.95898C2.85441 3.51855 1.95898 4.41399 1.95898 5.51855V12.4561" stroke="#1EB65B" stroke-width="1.75" stroke-linecap="round"/>
<path fill-rule="evenodd" clip-rule="evenodd" d="M22.4576 19.3402C22.3998 19.4099 22.3163 19.5105 22.2327 19.5105C22.0198 19.7284 21.4875 19.7284 21.2746 19.5105L19.5712 17.9852C18.9857 18.3665 18.2404 18.5844 17.4952 18.5844C15.366 18.5844 13.6094 16.7867 13.6094 14.6076C13.6094 12.4286 15.366 10.6309 17.4952 10.6309C19.6244 10.6309 21.381 12.4286 21.381 14.6076C21.381 15.4248 21.1681 16.133 20.7423 16.7322L22.4456 18.2576C22.7118 18.5299 22.7118 19.0202 22.4989 19.2926C22.4874 19.3043 22.4735 19.3211 22.4576 19.3402ZM17.5078 12.3264C16.2401 12.3264 15.248 13.3741 15.248 14.5872C15.248 15.8554 16.2952 16.848 17.5078 16.848C18.7203 16.848 19.7675 15.8003 19.7675 14.5872C19.8226 13.3189 18.7754 12.3264 17.5078 12.3264Z" fill="url(#paint0_linear_1390_20781)"/>
<path d="M7.82488 8.75391C8.45464 8.75391 8.94195 9.01631 9.28682 9.5486C9.6017 10.0434 9.75914 10.7032 9.75914 11.5353C9.75914 12.36 9.6017 13.0273 9.28682 13.5221C8.94195 14.0469 8.45464 14.3168 7.82488 14.3168C7.19512 14.3168 6.70781 14.0469 6.36294 13.5221C6.04806 13.0273 5.89062 12.3675 5.89062 11.5353C5.89062 10.6957 6.04806 10.0359 6.36294 9.5486C6.70781 9.01631 7.19512 8.75391 7.82488 8.75391ZM7.82488 9.44364C7.38255 9.44364 7.07517 9.68355 6.89524 10.1709C6.76029 10.5007 6.70031 10.9581 6.70031 11.5353C6.70031 12.1051 6.76029 12.5624 6.89524 12.8998C7.07517 13.3796 7.38255 13.627 7.82488 13.627C8.25972 13.627 8.5746 13.3796 8.75453 12.8998C8.88198 12.5624 8.94945 12.1051 8.94945 11.5353C8.94945 10.9581 8.88198 10.5007 8.75453 10.1709C8.5746 9.68355 8.25972 9.44364 7.82488 9.44364Z" fill="#1EB65B"/>
<path d="M14.9742 8.75391H15.589L12.5826 14.3168H11.9754L14.9742 8.75391ZM11.8629 8.85887C12.2752 8.85887 12.5901 9.00131 12.815 9.3012C13.01 9.5561 13.1149 9.90097 13.1149 10.3283C13.1149 10.7481 13.01 11.093 12.815 11.3554C12.5901 11.6403 12.2752 11.7902 11.8629 11.7902C11.4431 11.7902 11.1207 11.6403 10.8958 11.3554C10.6934 11.0855 10.5959 10.7481 10.5959 10.3283C10.5959 9.90097 10.6934 9.5561 10.8958 9.3012C11.1207 9.00131 11.4431 8.85887 11.8629 8.85887ZM11.8629 9.37617C11.668 9.37617 11.5255 9.47363 11.4356 9.66856C11.3681 9.82599 11.3381 10.0434 11.3381 10.3283C11.3381 10.5982 11.3681 10.8156 11.4356 10.9806C11.5255 11.1755 11.668 11.2729 11.8629 11.2729C12.0503 11.2729 12.1853 11.168 12.2752 10.9656C12.3352 10.8081 12.3727 10.5982 12.3727 10.3283C12.3727 10.0509 12.3352 9.83349 12.2677 9.67605C12.1853 9.47363 12.0503 9.37617 11.8629 9.37617Z" fill="#1EB65B"/>
<path d="M2.61587 16.9568C2.67013 16.5769 2.39884 16.2514 2.07329 16.1971C1.69348 16.1429 1.36793 16.4142 1.36793 16.7397C1.36793 16.794 1.15089 18.0962 2.07329 19.2356C2.72439 20.0495 3.7553 20.4836 5.16602 20.6463V21.7315L7.60765 20.0495L5.16602 18.2047V19.3441C4.08085 19.2899 3.48401 18.9101 3.04994 18.3675C2.50736 17.7164 2.61587 16.9568 2.61587 16.9568Z" fill="#1EB65B"/>
<path fill-rule="evenodd" clip-rule="evenodd" d="M5.66211 6.95508H18.844C18.982 6.95508 19.094 7.06701 19.094 7.20508V9.49332C19.7424 9.70507 20.3351 10.0404 20.844 10.4715V7.20508C20.844 6.10051 19.9485 5.20508 18.844 5.20508H5.66211C4.55754 5.20508 3.66211 6.10051 3.66211 7.20508V15.8654C3.66211 16.97 4.55754 17.8654 5.66211 17.8654H13.522C13.0836 17.358 12.7414 16.7652 12.5235 16.1154H5.66211C5.52404 16.1154 5.41211 16.0035 5.41211 15.8654V7.20508C5.41211 7.06701 5.52404 6.95508 5.66211 6.95508Z" fill="#1EB65B"/>
<defs>
<linearGradient id="paint0_linear_1390_20781" x1="13.649" y1="13.8037" x2="22.8725" y2="14.068" gradientUnits="userSpaceOnUse">
<stop stop-color="#1EB65B"/>
<stop offset="1" stop-color="#EDFFF4"/>
</linearGradient>
</defs>
</svg>
