<svg width="24" height="24" viewBox="0 0 24 24" fill="none" xmlns="http://www.w3.org/2000/svg">
<path d="M8 3C8 2.44772 8.44772 2 9 2H15C15.5523 2 16 2.44772 16 3H18.5C19.6046 3 20.5 3.89543 20.5 5V20C20.5 21.1046 19.6046 22 18.5 22H5.5C4.39543 22 3.5 21.1046 3.5 20V5C3.5 3.89543 4.39543 3 5.5 3H8ZM8 5V4.5H5.5C5.22386 4.5 5 4.72386 5 5V20C5 20.2761 5.22386 20.5 5.5 20.5H18.5C18.7761 20.5 19 20.2761 19 20V5C19 4.72386 18.7761 4.5 18.5 4.5H16V5C16 5.55228 15.5523 6 15 6H9C8.44772 6 8 5.55228 8 5ZM9.40903 12.7197C9.11614 12.4268 8.64126 12.4268 8.34837 12.7197C8.05548 13.0126 8.05548 13.4874 8.34837 13.7803L10.4697 15.9017C10.6103 16.0423 10.8011 16.1213 11 16.1213C11.1989 16.1213 11.3897 16.0423 11.5303 15.9017L16.4801 10.9519C16.773 10.659 16.773 10.1841 16.4801 9.89124C16.1872 9.59834 15.7123 9.59834 15.4194 9.89124L11 14.3107L9.40903 12.7197Z" fill="#3F414D" fill-opacity="0.6"/>
</svg>
