<svg width="24" height="24" viewBox="0 0 24 24" fill="none" xmlns="http://www.w3.org/2000/svg">
<path d="M18.7054 21.9989H16.209C15.6773 21.9983 15.1675 21.7835 14.7915 21.4015C14.4155 21.0196 14.204 20.5017 14.2035 19.9615V16.3777C14.2029 16.0902 14.0902 15.8145 13.89 15.6112C13.6899 15.4078 13.4185 15.2933 13.1355 15.2927H10.8667C10.5836 15.2933 10.3123 15.4078 10.1121 15.6112C9.91196 15.8145 9.79925 16.0902 9.79868 16.3777V19.9615C9.79868 21.086 8.89895 22 7.79317 22H5.29679C4.68773 21.9997 4.1037 21.7538 3.67303 21.3163C3.24236 20.8788 3.00029 20.2854 3 19.6667V9.76425C3.00123 9.14547 3.14558 8.53565 3.42142 7.98396C3.69726 7.43226 4.09687 6.95415 4.58801 6.58817L10.6445 2.45313C11.037 2.1588 11.5121 2 12 2C12.4879 2 12.963 2.1588 13.3555 2.45313L19.4109 6.58817L19.4357 6.60571C19.9201 6.97252 20.3137 7.44897 20.5852 7.99723C20.8567 8.5455 20.9987 9.15051 21 9.76425V19.6667C20.9997 20.285 20.7579 20.8778 20.3277 21.3151C19.8974 21.7524 19.314 21.9983 18.7054 21.9989Z" fill="url(#paint0_linear_1_52516)"/>
<defs>
<linearGradient id="paint0_linear_1_52516" x1="3.53571" y1="1.99999" x2="21.0945" y2="2.97729" gradientUnits="userSpaceOnUse">
<stop stop-color="#01B14E"/>
<stop offset="1" stop-color="#01B14E"/>
</linearGradient>
</defs>
</svg>
