<svg width="24" height="24" viewBox="0 0 24 24" fill="none" xmlns="http://www.w3.org/2000/svg">
<path d="M8 3C8 2.44772 8.44772 2 9 2H15C15.5523 2 16 2.44772 16 3V5C16 5.55228 15.5523 6 15 6H9C8.44772 6 8 5.55228 8 5V3ZM6.75 4.25C6.75 3.55964 6.19036 3 5.5 3C4.39543 3 3.5 3.89543 3.5 5V20C3.5 21.1046 4.39543 22 5.5 22H18.5C19.6046 22 20.5 21.1046 20.5 20V5C20.5 3.89543 19.6046 3 18.5 3C17.8096 3 17.25 3.55964 17.25 4.25V5C17.25 6.10457 16.3546 7 15.25 7H8.75C7.64543 7 6.75 6.10457 6.75 5V4.25ZM9.40903 12.7197C10.2877 13.5983 11.7123 13.5983 12.591 12.7197L15.4194 9.89124C15.7123 9.59834 16.1872 9.59834 16.4801 9.89124C16.773 10.1841 16.773 10.659 16.4801 10.9519L11.5303 15.9017C11.3897 16.0423 11.1989 16.1213 11 16.1213C10.8011 16.1213 10.6103 16.0423 10.4697 15.9017L8.34837 13.7803C8.05548 13.4874 8.05548 13.0126 8.34837 12.7197C8.64126 12.4268 9.11614 12.4268 9.40903 12.7197Z" fill="url(#paint0_linear_1_52518)"/>
<defs>
<linearGradient id="paint0_linear_1_52518" x1="4.00595" y1="1.99999" x2="20.5948" y2="2.87201" gradientUnits="userSpaceOnUse">
<stop stop-color="#01B14E"/>
<stop offset="1" stop-color="#01B14E"/>
</linearGradient>
</defs>
</svg>
