<svg width="24" height="24" viewBox="0 0 24 24" fill="none" xmlns="http://www.w3.org/2000/svg">
<path d="M3 4C3 2.89543 3.89543 2 5 2H19C20.1046 2 21 2.89543 21 4V20C21 21.1046 20.1046 22 19 22H5C3.89543 22 3 21.1046 3 20V4ZM6 6V8C6 8.27614 6.22386 8.5 6.5 8.5H8.5C8.77614 8.5 9 8.27614 9 8V6C9 5.72386 8.77614 5.5 8.5 5.5H6.5C6.22386 5.5 6 5.72386 6 6ZM11.75 6.25C11.3358 6.25 11 6.58579 11 7C11 7.41421 11.3358 7.75 11.75 7.75H17.25C17.6642 7.75 18 7.41421 18 7C18 6.58579 17.6642 6.25 17.25 6.25H11.75ZM6 11V13C6 13.2761 6.22386 13.5 6.5 13.5H8.5C8.77614 13.5 9 13.2761 9 13V11C9 10.7239 8.77614 10.5 8.5 10.5H6.5C6.22386 10.5 6 10.7239 6 11ZM11.75 11.25C11.3358 11.25 11 11.5858 11 12C11 12.4142 11.3358 12.75 11.75 12.75H17.25C17.6642 12.75 18 12.4142 18 12C18 11.5858 17.6642 11.25 17.25 11.25H11.75ZM6 16V18C6 18.2761 6.22386 18.5 6.5 18.5H8.5C8.77614 18.5 9 18.2761 9 18V16C9 15.7239 8.77614 15.5 8.5 15.5H6.5C6.22386 15.5 6 15.7239 6 16ZM11.75 16.25C11.3358 16.25 11 16.5858 11 17C11 17.4142 11.3358 17.75 11.75 17.75H17.25C17.6642 17.75 18 17.4142 18 17C18 16.5858 17.6642 16.25 17.25 16.25H11.75Z" fill="url(#paint0_linear_1_52522)"/>
<defs>
<linearGradient id="paint0_linear_1_52522" x1="3.53571" y1="1.99999" x2="21.0945" y2="2.97729" gradientUnits="userSpaceOnUse">
<stop stop-color="#01B14E"/>
<stop offset="1" stop-color="#01B14E"/>
</linearGradient>
</defs>
</svg>
