<svg width="24" height="24" viewBox="0 0 24 24" fill="none" xmlns="http://www.w3.org/2000/svg">
<path fill-rule="evenodd" clip-rule="evenodd" d="M7 7C7 4.23858 9.23858 2 12 2C14.7614 2 17 4.23858 17 7C17 9.76142 14.7614 12 12 12C9.23858 12 7 9.76142 7 7ZM12 3.59375C10.1188 3.59375 8.59375 5.11878 8.59375 7C8.59375 8.88122 10.1188 10.4062 12 10.4062C13.8812 10.4062 15.4062 8.88122 15.4062 7C15.4062 5.11878 13.8812 3.59375 12 3.59375Z" fill="#3F414D" fill-opacity="0.6"/>
<path fill-rule="evenodd" clip-rule="evenodd" d="M3.01644 19.1536C3.60606 15.1153 7.40271 12 12 12C16.5973 12 20.3939 15.1153 20.9836 19.1536C21.1389 20.2174 20.1683 21 19.1405 21H4.85946C3.83166 21 2.86112 20.2174 3.01644 19.1536ZM12 13.5C8.23978 13.5 5.13212 16.0485 4.64989 19.3512C4.64534 19.3824 4.653 19.4085 4.68337 19.4373C4.71839 19.4705 4.78008 19.5 4.85946 19.5H19.1405C19.2199 19.5 19.2816 19.4705 19.3166 19.4373C19.347 19.4085 19.3547 19.3824 19.3501 19.3512C18.8679 16.0485 15.7602 13.5 12 13.5Z" fill="#3F414D" fill-opacity="0.6"/>
</svg>
