<svg width="24" height="24" viewBox="0 0 24 24" fill="none" xmlns="http://www.w3.org/2000/svg">
<path d="M19 3.5C19.2761 3.5 19.5 3.72386 19.5 4V20C19.5 20.2761 19.2761 20.5 19 20.5H5C4.72386 20.5 4.5 20.2761 4.5 20V4C4.5 3.72386 4.72386 3.5 5 3.5H19ZM5 2C3.89543 2 3 2.89543 3 4V20C3 21.1046 3.89543 22 5 22H19C20.1046 22 21 21.1046 21 20V4C21 2.89543 20.1046 2 19 2H5ZM6 11C6 10.7239 6.22386 10.5 6.5 10.5H8.5C8.77614 10.5 9 10.7239 9 11V13C9 13.2761 8.77614 13.5 8.5 13.5H6.5C6.22386 13.5 6 13.2761 6 13V11ZM6.5 5.5C6.22386 5.5 6 5.72386 6 6V8C6 8.27614 6.22386 8.5 6.5 8.5H8.5C8.77614 8.5 9 8.27614 9 8V6C9 5.72386 8.77614 5.5 8.5 5.5H6.5ZM11 7C11 6.58579 11.3358 6.25 11.75 6.25H17.25C17.6642 6.25 18 6.58579 18 7C18 7.41421 17.6642 7.75 17.25 7.75H11.75C11.3358 7.75 11 7.41421 11 7ZM11.75 11.25H17.25C17.6642 11.25 18 11.5858 18 12C18 12.4142 17.6642 12.75 17.25 12.75H11.75C11.3358 12.75 11 12.4142 11 12C11 11.5858 11.3358 11.25 11.75 11.25ZM6 16C6 15.7239 6.22386 15.5 6.5 15.5H8.5C8.77614 15.5 9 15.7239 9 16V18C9 18.2761 8.77614 18.5 8.5 18.5H6.5C6.22386 18.5 6 18.2761 6 18V16ZM11.75 16.25C11.3358 16.25 11 16.5858 11 17C11 17.4142 11.3358 17.75 11.75 17.75H17.25C17.6642 17.75 18 17.4142 18 17C18 16.5858 17.6642 16.25 17.25 16.25H11.75Z" fill="#3F414D" fill-opacity="0.6"/>
</svg>
