<svg width="24" height="24" viewBox="0 0 24 24" fill="none" xmlns="http://www.w3.org/2000/svg">
<path d="M14.3438 3.51855H3.95898C2.85441 3.51855 1.95898 4.41399 1.95898 5.51855V12.4561" stroke="#2F7AEA" stroke-width="1.75" stroke-linecap="round"/>
<path fill-rule="evenodd" clip-rule="evenodd" d="M22.4576 19.3402C22.3998 19.4099 22.3163 19.5105 22.2327 19.5105C22.0198 19.7284 21.4875 19.7284 21.2746 19.5105L19.5712 17.9852C18.9857 18.3665 18.2404 18.5844 17.4952 18.5844C15.366 18.5844 13.6094 16.7867 13.6094 14.6076C13.6094 12.4286 15.366 10.6309 17.4952 10.6309C19.6244 10.6309 21.381 12.4286 21.381 14.6076C21.381 15.4248 21.1681 16.133 20.7423 16.7322L22.4456 18.2576C22.7118 18.5299 22.7118 19.0202 22.4989 19.2926C22.4874 19.3043 22.4735 19.3211 22.4576 19.3402ZM17.5078 12.3264C16.2401 12.3264 15.248 13.3741 15.248 14.5872C15.248 15.8554 16.2952 16.848 17.5078 16.848C18.7203 16.848 19.7675 15.8003 19.7675 14.5872C19.8226 13.3189 18.7754 12.3264 17.5078 12.3264Z" fill="url(#paint0_linear_1390_20787)"/>
<path d="M2.61587 16.9568C2.67013 16.5769 2.39884 16.2514 2.07329 16.1971C1.69348 16.1429 1.36793 16.4142 1.36793 16.7397C1.36793 16.794 1.15089 18.0962 2.07329 19.2356C2.72439 20.0495 3.7553 20.4836 5.16602 20.6463V21.7315L7.60765 20.0495L5.16602 18.2047V19.3441C4.08085 19.2899 3.48401 18.9101 3.04994 18.3675C2.50736 17.7164 2.61587 16.9568 2.61587 16.9568Z" fill="#2F7AEA"/>
<path fill-rule="evenodd" clip-rule="evenodd" d="M5.66211 6.95483H18.844C18.982 6.95483 19.094 7.06677 19.094 7.20483V9.49308C19.7424 9.70483 20.3351 10.0402 20.844 10.4713V7.20483C20.844 6.10026 19.9485 5.20483 18.844 5.20483H5.66211C4.55754 5.20483 3.66211 6.10026 3.66211 7.20483V15.8651C3.66211 16.9697 4.55754 17.8651 5.66211 17.8651H13.522C13.0836 17.3577 12.7414 16.765 12.5235 16.1151H5.66211C5.52404 16.1151 5.41211 16.0032 5.41211 15.8651V7.20483C5.41211 7.06676 5.52404 6.95483 5.66211 6.95483Z" fill="#2F7AEA"/>
<path d="M7.51367 9.8125L8.79947 13.2199C8.92854 13.5619 9.41093 13.5659 9.54559 13.226L10.8981 9.8125" stroke="#2F7AEA" stroke-linecap="round"/>
<path d="M13.6875 8.625H17.75" stroke="#2F7AEA" stroke-linecap="round"/>
<defs>
<linearGradient id="paint0_linear_1390_20787" x1="13.6094" y1="19.6739" x2="23.5002" y2="19.6739" gradientUnits="userSpaceOnUse">
<stop stop-color="#2F7AEA"/>
<stop offset="1" stop-color="#D1E4FF"/>
</linearGradient>
</defs>
</svg>
