<svg width="20" height="20" viewBox="0 0 20 20" fill="none" xmlns="http://www.w3.org/2000/svg">
    <g id="24">
        <path id="shape"
            d="M1.66675 10.0001C1.66675 5.39771 5.39771 1.66675 10.0001 1.66675C14.6025 1.66675 18.3334 5.39771 18.3334 10.0001C18.3334 14.6025 14.6025 18.3334 10.0001 18.3334C5.39771 18.3334 1.66675 14.6025 1.66675 10.0001ZM6.014 10.1769C5.76991 9.93285 5.37419 9.93286 5.13012 10.1769C4.88605 10.421 4.88606 10.8168 5.13015 11.0608L8.07654 14.007C8.32062 14.2511 8.71633 14.2511 8.9604 14.007L15.4421 7.52528C15.6862 7.2812 15.6862 6.88548 15.4421 6.6414C15.198 6.39732 14.8023 6.39732 14.5582 6.6414L8.51845 12.6812L6.014 10.1769Z"
            fill="#01B14E" />
        <path id="shape_2"
            d="M5.12982 10.1769C5.37389 9.93277 5.76962 9.93276 6.0137 10.1768L8.51815 12.6811L14.5579 6.64131C14.802 6.39723 15.1977 6.39723 15.4418 6.64131C15.6859 6.88539 15.6859 7.28112 15.4418 7.52519L8.96011 14.0069C8.71604 14.251 8.32032 14.251 8.07624 14.0069L5.12985 11.0607C4.88577 10.8167 4.88575 10.4209 5.12982 10.1769Z"
            fill="white" />
    </g>
</svg>