<svg width="16" height="16" viewBox="0 0 16 16" fill="none" xmlns="http://www.w3.org/2000/svg">
<path d="M15.7589 9.93524C14.6904 14.221 10.3496 16.8292 6.06336 15.7605C1.77889 14.692 -0.829339 10.351 0.239588 6.06558C1.30758 1.77935 5.64835 -0.829071 9.93329 0.239387C14.2192 1.30785 16.8273 5.64936 15.7587 9.93532L15.7588 9.93524H15.7589Z" fill="#50AF95"/>
<path fill-rule="evenodd" clip-rule="evenodd" d="M9.01195 8.90714C8.95538 8.91138 8.66312 8.92882 8.01118 8.92882C7.49265 8.92882 7.12449 8.91327 6.99533 8.90714C4.99144 8.81899 3.4957 8.47016 3.4957 8.0525C3.4957 7.63485 4.99144 7.28649 6.99533 7.19692V8.55972C7.12638 8.56915 7.50161 8.59131 8.02014 8.59131C8.64238 8.59131 8.95397 8.56538 9.01007 8.56019V7.19787C11.0097 7.28696 12.5022 7.63579 12.5022 8.0525C12.5022 8.46922 11.0102 8.81805 9.01007 8.90667L9.01195 8.90714ZM9.01196 7.05693V5.83743H11.8026V3.97778H4.20468V5.83743H6.99486V7.05646C4.72699 7.16063 3.02148 7.60987 3.02148 8.1482C3.02148 8.68653 4.72699 9.1353 6.99486 9.23995V13.1478H9.01148V9.23854C11.2742 9.13436 12.9768 8.68559 12.9768 8.14773C12.9768 7.60987 11.2756 7.1611 9.01148 7.05646L9.01196 7.05693Z" fill="white"/>
</svg>
