<svg width="28" height="14" viewBox="0 0 28 14" fill="none" xmlns="http://www.w3.org/2000/svg">
    <rect width="28" height="14" rx="7" fill="url(#paint0_linear_1_52504)" />
    <path
        d="M5.13287 2.78002H6.11287L8.54109 9.58558H8.57376L11.002 2.78002H11.982L9.10731 10.5547H8.00753L5.13287 2.78002ZM20.5044 10.326H19.5244L19.3066 9.54202L20.2431 9.57469C20.5262 9.57469 20.6677 9.42224 20.6677 9.13913V5.68735H17.902V11.6654H17.0962V5.68735H14.3195V10.3478H13.5355V4.92513H17.0962V3.21558C15.8331 3.31358 14.472 3.36802 12.9911 3.36802L12.7515 2.63846C16.3013 2.62758 19.2413 2.33358 21.5824 1.74558L21.9744 2.43158C20.8093 2.74735 19.4482 2.98691 17.902 3.15024V4.92513H21.4517V9.31335C21.4517 9.98847 21.136 10.326 20.5044 10.326Z"
        fill="white" />
    <defs>
        <linearGradient id="paint0_linear_1_52504" x1="0.833334" y1="-4.0081e-06" x2="27.8188" y2="3.33771"
            gradientUnits="userSpaceOnUse">
            <stop stop-color="#0AE0A8" />
            <stop offset="1" stop-color="#01B14E" />
        </linearGradient>
    </defs>
</svg>