<svg width="20" height="20" viewBox="0 0 20 20" fill="none" xmlns="http://www.w3.org/2000/svg">
    <path
        d="M17.1679 9.16677L15.7364 7.76314V5.98986C15.7342 5.35984 15.9228 4.22194 15.2949 4.21872H11.7677L10.8837 2.89332C10.439 2.44866 9.6408 2.33937 9.19614 2.78295L8.23824 4.22194H5.5885C4.95955 4.22408 4.23416 4.7191 4.23309 5.3502V7.66886L2.83161 9.16891C2.61915 9.38391 2.5 9.674 2.5 9.97626C2.5 10.2785 2.61915 10.5686 2.83161 10.7836L4.23309 12.304V14.6227C4.23416 15.2538 4.5181 15.7306 5.14705 15.7327H7.79358L9.19399 17.1674C9.40758 17.3809 9.69721 17.5009 9.9992 17.5009C10.3012 17.5009 10.5908 17.3809 10.8044 17.1674L12.2059 15.7317H14.411C15.0399 15.7306 15.7321 15.0352 15.7342 14.403V12.1915L17.1657 10.7847C17.3794 10.5698 17.4996 10.2792 17.5 9.97617C17.5004 9.67312 17.381 9.38219 17.1679 9.16677Z"
        fill="url(#paint0_linear_3_69335)" />
    <path d="M6.875 9.375L8.97181 11.996C9.176 12.2512 9.56614 12.2451 9.76225 11.9837L13.125 7.5" stroke="white"
        stroke-width="1.25" stroke-linecap="round" />
    <defs>
        <linearGradient id="paint0_linear_3_69335" x1="2.94643" y1="2.5" x2="17.5682" y2="3.40419"
            gradientUnits="userSpaceOnUse">
            <stop stop-color="#0AE0A8" />
            <stop offset="1" stop-color="#01B14E" />
        </linearGradient>
    </defs>
</svg>